<svg version="1.1" xmlns="http://www.w3.org/2000/svg" xmlns:xlink="http://www.w3.org/1999/xlink" x="0px" y="0px"
	 viewBox="0 0 136.35 136.35" fill="#fff">
	<path d="M136.35,101.35c0,19.3-15.7,35-35,35H35c-9.35,0-18.14-3.64-24.75-10.25S0,110.7,0,101.35V35
		C0,15.7,15.7,0,35,0h66.35c19.3,0,35,15.7,35,35V101.35z M10,101.35c0,6.68,2.6,12.96,7.32,17.68s11,7.32,17.68,7.32h66.35
		c13.79,0,25-11.21,25-25V35c0-13.79-11.21-25-25-25H35c-13.79,0-25,11.21-25,25V101.35z"/>
	<path d="M101.54,68.17c0,18.4-14.97,33.36-33.36,33.36S34.82,86.56,34.82,68.17s14.97-33.36,33.36-33.36
		S101.54,49.78,101.54,68.17z M44.81,68.17c0,12.88,10.48,23.36,23.36,23.36s23.36-10.48,23.36-23.36S81.05,44.81,68.17,44.81
		S44.81,55.29,44.81,68.17z"/>
	<circle cx="106.35" cy="30" r="6"/>
</svg>
