
<svg version="1.1"  xmlns="http://www.w3.org/2000/svg" xmlns:xlink="http://www.w3.org/1999/xlink" x="0px" y="0px"
	 viewBox="0 0 311.25 73.43" fill="#FFF" >
	<path d="M65.31,20.56L42.98,72.72l-12.89,0.22l-1.38-30.32L15.5,73.2L2.13,73.43L0,21.7l13.17-0.23l-0.09,32.9
		l13.65-33.14l11.56-0.2l0.87,33.64l13.16-33.89L65.31,20.56z"/>
	<path d="M103.85,39.71l-2.09,10.37l-25.5,0.44L76,52.14c-1.32,5.81,0.83,9.28,5.38,9.2c3.7-0.06,6.49-2.86,7.09-6.57
		l0-0.09l12.8-0.22l0,0.28C99.09,65.87,91.72,73.1,80.35,73.3c-13.36,0.23-19.69-8.86-17.33-20.75l2.79-14.27
		c2.36-11.42,9.72-19.13,20.81-19.33C99.88,18.73,106.21,28.01,103.85,39.71z M78.44,39.58l12.61-0.22
		c0.95-5.33-1.19-8.51-5.46-8.44c-3.7,0.06-6.2,3.43-6.89,7.33L78.44,39.58z"/>
	<path d="M136.79,36.96c0.97-4.09-0.31-6.92-4.01-6.85c-3.41,0.06-5.84,2.38-6.82,6.09l-6.88,35.2l-12.89,0.22
		l10.1-51.95l11.75-0.2l-0.79,3.81c2.89-3.08,6.45-5.14,10.91-5.21c5.31-0.09,8.85,2.03,10.71,5.31c3.07-3.37,7.01-5.62,12.23-5.71
		c10.05-0.17,14.64,7.71,12.99,16.18l-7.14,36.72l-12.89,0.22l6.61-34.25c0.97-4.09-0.31-6.92-4.01-6.85
		c-3.32,0.06-5.65,2.47-6.73,5.52l-6.87,35.77l-12.89,0.22L136.79,36.96z"/>
	<path d="M223.6,17.81L213.5,69.76l-11.19,0.19l0.7-3.43c-2.6,2.99-5.89,4.75-9.78,4.82
		c-8.44,0.15-16.62-6.73-13.84-21.57l2.61-13.51c2.79-14.08,11.42-19.16,18.63-19.29c5.31-0.09,8.95,1.93,10.81,5.6l0.96-4.57
		L223.6,17.81z M206.79,38.11c1.32-5.81-0.73-9.28-5-9.21c-3.7,0.06-6.29,3.43-6.89,7.33l-2.79,13.89c-1.32,5.81,0.92,9.27,5.19,9.2
		c3.7-0.06,6.11-3.33,6.79-7.51L206.79,38.11z"/>
	<path d="M244.51,48.17l-4.93,5.49l-3.05,15.7l-12.89,0.22l13.49-69.36L250.02,0l-6.97,35.49l15.14-18.28l15.07-0.26
		l-19.14,22.52l10.18,29.41l-13.27,0.23L244.51,48.17z"/>
	<path d="M310.76,36.11l-2.09,10.37l-25.5,0.44l-0.26,1.62c-1.32,5.81,0.82,9.28,5.37,9.2c3.7-0.06,6.49-2.86,7.09-6.57
		l0-0.09l12.8-0.22l0,0.28c-2.18,11.13-9.54,18.37-20.92,18.57c-13.37,0.23-19.69-8.86-17.33-20.75l2.79-14.27
		c2.36-11.42,9.72-19.13,20.81-19.33C306.79,15.13,313.12,24.41,310.76,36.11z M285.35,35.99l12.61-0.22
		c0.95-5.33-1.19-8.51-5.46-8.44c-3.7,0.06-6.2,3.43-6.89,7.33L285.35,35.99z"/>
</svg>
