<?xml version="1.0" standalone="no"?>
<!DOCTYPE svg PUBLIC "-//W3C//DTD SVG 1.1//EN" "http://www.w3.org/Graphics/SVG/1.1/DTD/svg11.dtd">
<svg xmlns="http://www.w3.org/2000/svg">
<defs >
<font id="SpectralSC" horiz-adv-x="545" ><font-face
    font-family="Spectral SC Light"
    units-per-em="1000"
    panose-1="2 2 3 2 6 0 0 0 0 0"
    ascent="1059"
    descent="-463"
    alphabetic="0" />
<glyph unicode=" " glyph-name="uni0020" horiz-adv-x="245" />
<glyph unicode="!" glyph-name="uni0021.sc" horiz-adv-x="211" d="M78 169L127 560H196L93 169H78ZM58 -5Q36 -5 26 7T15 40Q15 61 30 79T70 98Q92 98 102 85T113 53Q113 32 98 14T58 -5Z" />
<glyph unicode="&quot;" glyph-name="uni0022.sc" horiz-adv-x="412" d="M379 646L395 896H471L399 646H379ZM552 646L568 896H644L572 646H552Z" />
<glyph unicode="#" glyph-name="uni0023.OT" horiz-adv-x="500" d="M20 0L85 161H-3L3 198H100L160 346H72L78 383H175L235 531H276L216 383H338L398 531H439L379 383H466L459 346H364L304 198H391L385 161H288L223 0H182L247 161H126L61 0H20ZM141 198H263L323
346H201L141 198Z" />
<glyph unicode="$" glyph-name="uni0024.OT" horiz-adv-x="500" d="M132 -79L145 -1Q101 12 79 33Q63 47 56 64T49 99Q49 122 60 131T86 140H109L113 137L110 114Q106 86 116 65T151 32L192 272Q156 296 138 322T119 388Q119 439 152 476T236 529L250 608H286L274
538Q290 540 307 540Q322 540 336 538L348 608H384L371 531Q400 521 420 503Q437 489 444 474T451 444Q451 404 415 404H394L389 408L393 432Q399 477 365 496L325 264Q365 237 384 210T404 144Q404 90 370 53T280 0L266 -79H230L242 -8Q224 -10 205 -10Q193 -10
180 -8L168 -79H132ZM275 295Q285 289 292 285L331 507Q316 509 299 509Q283 509 269 507L236 319Q245 313 254 308T275 295ZM172 407Q172 386 180 371T204 342L231 496Q203 484 188 461T172 407ZM214 20Q232 20 247 22L281 219Q269 226 255 234T225 252L185 22Q199
20 214 20ZM349 131Q349 153 340 168T314 198L285 32Q318 45 333 71T349 131Z" />
<glyph unicode="%" glyph-name="uni0025" horiz-adv-x="686" d="M148 345Q101 345 77 381T52 481Q52 533 64 581T99 668T152 728T218 750Q265 750 289 714T314 614Q314 561 302 513T267 427T214 367T148 345ZM110 472Q110 423 121 396T157 368Q179 368 197 390T228
449T249 531T257 623Q257 673 246 700T209 727Q187 727 169 705T138 647T117 565T110 472ZM34 11L638 750L664 729L60 -10L34 11ZM484 -10Q437 -10 413 26T388 126Q388 178 400 226T435 313T488 373T554 395Q601 395 625 359T650 259Q650 206 638 158T603 72T550
12T484 -10ZM446 117Q446 68 457 41T493 13Q515 13 533 35T564 94T585 176T593 268Q593 318 582 345T545 372Q523 372 505 350T474 292T453 210T446 117Z" />
<glyph unicode="&amp;" glyph-name="uni0026.sc" horiz-adv-x="588" d="M138 -10Q76 -10 40 22T3 105Q3 166 40 211T156 300Q136 327 123 355T110 417Q110 460 131 494T188 549T271 569Q327 569 359 543T391 477Q391 425 352 389T224 311Q227 307 231 302T239
292L362 139Q414 201 460 293L382 315L384 329H577L574 315L501 293Q470 242 440 199T378 119L391 103Q425 61 449 42T509 23Q541 23 565 44H567L574 35Q557 12 533 1T481 -10Q430 -10 401 11T341 72L337 77Q292 35 243 13T138 -10ZM163 438Q163 408 175 383T211
327Q280 363 308 397T336 471Q336 501 318 521T262 541Q220 541 192 514T163 438ZM62 126Q62 82 89 55T168 27Q208 27 246 45T321 97L221 221Q208 238 195 253T168 285Q111 249 87 211T62 126Z" />
<glyph unicode="&apos;" glyph-name="uni0027.sc" horiz-adv-x="228" d="M379 646L395 896H471L399 646H379Z" />
<glyph unicode="(" glyph-name="uni0028" horiz-adv-x="250" d="M152 -150Q109 -75 85 11T60 193Q60 298 91 396T176 581T303 740H320V737Q219 613 163 475T106 175Q106 80 122 4T169 -147V-150H152Z" />
<glyph unicode=")" glyph-name="uni0029" horiz-adv-x="250" d="M-67 -149V-146Q34 -22 90 116T147 416Q147 511 131 587T84 738V741H101Q144 666 168 580T193 398Q193 293 163 195T77 10T-50 -149H-67Z" />
<glyph unicode="*" glyph-name="uni002A" horiz-adv-x="362" d="M96 465L212 575L77 607L99 652L221 594L231 740H278L239 594L379 652L388 607L242 575L319 464L277 437L225 561L130 436L96 465Z" />
<glyph unicode="+" glyph-name="uni002B" horiz-adv-x="500" d="M444 254H259L225 62H186L220 254H35L42 290H226L260 482H299L265 290H450L444 254Z" />
<glyph unicode="," glyph-name="uni002C" horiz-adv-x="241" d="M-6 -185V-169Q46 -141 68 -113T90 -52Q90 -30 82 -15T59 10L33 27V35L50 59Q63 79 76 79Q84 79 97 71Q143 38 143 -17Q143 -64 107 -106T-6 -185Z" />
<glyph unicode="-" glyph-name="uni002D" horiz-adv-x="350" d="M40 233L48 281H310L302 233H40Z" />
<glyph unicode="." glyph-name="uni002E" horiz-adv-x="241" d="M78 -5Q56 -5 46 7T35 40Q35 62 50 80T90 98Q112 98 122 85T133 53Q133 30 118 13T78 -5Z" />
<glyph unicode="/" glyph-name="uni002F" horiz-adv-x="274" d="M-60 -120L293 750H334L-19 -120H-60Z" />
<glyph unicode="0" glyph-name="uni0030.OT" horiz-adv-x="500" d="M216 -10Q158 -10 118 18T57 97T36 211Q36 275 53 334T102 439T180 513T286 540Q344 540 383 512T442 433T463 319Q463 254 447 195T398 90T320 17T216 -10ZM224 44Q287 44 332 78T403 170T428
302Q428 385 388 435T275 486Q214 486 169 452T98 359T72 227Q72 144 111 94T224 44Z" />
<glyph unicode="1" glyph-name="uni0031.OT" horiz-adv-x="500" d="M63 0L66 15L179 43L257 487L154 515L157 530H437L434 515L321 487L243 43L346 15L343 0H63Z" />
<glyph unicode="2" glyph-name="uni0032.OT" horiz-adv-x="500" d="M23 0L26 19Q116 102 177 157T276 252T329 326T345 400Q345 440 322 467T250 494Q206 494 173 466T113 387L90 399Q122 465 168 502T276 540Q344 540 378 504T413 413Q413 368 393 330T332 251T234
164T100 53H321L378 153H393L357 0H23Z" />
<glyph unicode="3" glyph-name="uni0033.OT" horiz-adv-x="500" d="M169 -139Q109 -139 66 -118T7 -66Q3 -58 3 -47Q3 -30 22 -21L46 -5H55L61 -22Q74 -58 102 -82T182 -107Q259 -107 298 -59T338 63Q338 127 296 169T165 212L160 242H162Q213 242 255 260T324
313T350 397Q350 439 328 466T254 494Q210 494 176 466T116 387L93 399Q124 465 170 502T278 540Q346 540 381 505T417 415Q417 353 375 311T276 246Q343 226 373 181T404 80Q404 18 375 -32T293 -110T169 -139Z" />
<glyph unicode="4" glyph-name="uni0034.OT" horiz-adv-x="500" d="M212 -130L249 82H-22L-18 106L373 530H393L322 127H441L433 82H314L276 -130H212ZM45 127H257L308 416L45 127Z" />
<glyph unicode="5" glyph-name="uni0035.OT" horiz-adv-x="500" d="M146 -140Q84 -140 52 -122T20 -79Q20 -72 23 -65T37 -52L63 -35H69L78 -53Q87 -72 111 -84T180 -97Q256 -97 306 -50T357 88Q357 157 316 196T182 235Q143 235 89 226L142 530H439L428 473H164L132
288Q148 290 167 291T204 293Q278 293 323 269T390 204T411 116Q411 50 379 -8T287 -103T146 -140Z" />
<glyph unicode="6" glyph-name="uni0036.OT" horiz-adv-x="500" d="M211 -10Q152 -10 113 15T54 85T34 187Q34 287 82 382T228 553T472 670L466 646Q360 611 287 555T171 428T112 281Q142 329 186 358T288 388Q361 388 399 343T437 231Q437 158 404 104T320 20T211
-10ZM101 181Q101 97 134 59T215 21Q260 21 296 45T352 111T373 212Q373 274 347 307T268 341Q220 341 175 311T104 233Q101 207 101 181Z" />
<glyph unicode="7" glyph-name="uni0037.OT" horiz-adv-x="500" d="M26 -130Q53 -80 76 -38T124 50T186 153T274 287T404 473H64L75 530H471L469 512Q422 446 376 382T286 245T197 81T110 -130H26Z" />
<glyph unicode="8" glyph-name="uni0038.OT" horiz-adv-x="500" d="M201 -10Q152 -10 112 7T47 57T22 134Q22 196 69 246T204 342Q149 382 127 417T105 492Q105 538 132 578T205 644T305 670Q352 670 387 651T441 600T461 530Q461 484 425 441T299 350Q348 317
373 288T409 231T419 171Q419 124 390 83T312 16T201 -10ZM273 368L274 367Q317 391 344 412T385 460T399 525Q399 578 372 607T291 636Q229 636 199 602T169 518Q169 492 177 469T207 421T273 368ZM88 149Q88 88 121 56T216 24Q284 24 321 61T358 157Q358 194
343 221T299 273T227 326Q174 293 144 266T101 212T88 149Z" />
<glyph unicode="9" glyph-name="uni0039.OT" horiz-adv-x="500" d="M1 -140L7 -116Q113 -81 186 -25T302 102T361 249Q331 201 287 172T185 142Q112 142 74 187T36 299Q36 372 69 426T154 510T262 540Q321 540 360 515T419 445T439 343Q439 243 391 148T245 -23T1
-140ZM100 318Q100 256 126 223T205 189Q253 189 298 219T369 297Q372 323 372 349Q372 433 338 471T258 509Q212 509 177 485T121 419T100 318Z" />
<glyph unicode=":" glyph-name="uni003A" horiz-adv-x="241" d="M78 -5Q56 -5 46 7T35 40Q35 62 50 80T90 98Q112 98 122 85T133 53Q133 30 118 13T78 -5ZM137 357Q115 357 105 369T94 402Q94 424 109 442T149 460Q171 460 181 447T192 415Q192 392 177 375T137 357Z" />
<glyph unicode=";" glyph-name="uni003B" horiz-adv-x="241" d="M137 357Q115 357 105 369T94 402Q94 424 109 442T149 460Q171 460 181 447T192 415Q192 392 177 375T137 357ZM-2 -185V-169Q50 -141 72 -113T94 -52Q94 -30 86 -15T63 10L37 27V35L54 59Q67 79
80 79Q88 79 101 71Q147 38 147 -17Q147 -64 111 -106T-2 -185Z" />
<glyph unicode="&lt;" glyph-name="uni003C" horiz-adv-x="500" d="M411 62L25 254L30 290L485 482L477 439L73 270L417 100L411 62Z" />
<glyph unicode="=" glyph-name="uni003D" horiz-adv-x="500" d="M463 356H54L61 392H469L463 356ZM427 152H18L25 188H433L427 152Z" />
<glyph unicode="&gt;" glyph-name="uni003E" horiz-adv-x="500" d="M72 482L459 290L453 254L-1 62L6 105L410 274L66 444L72 482Z" />
<glyph unicode="?" glyph-name="uni003F.sc" horiz-adv-x="371" d="M166 164Q135 190 120 213T105 262Q105 293 119 312T157 342T206 362T255 379T292 403T307 442Q307 480 276 499T195 519Q186 519 176 518T154 515L119 508L107 512L98 534Q94 542 94 549Q94
557 106 563T149 570Q179 570 212 559T275 527T322 480T341 423Q341 386 321 365T272 333T214 311T165 284T145 238Q145 218 153 204T176 173L166 164ZM123 -5Q100 -5 90 7T80 40Q80 61 95 79T135 98Q157 98 167 85T178 53Q178 32 163 14T123 -5Z" />
<glyph unicode="@" glyph-name="uni0040.sc" horiz-adv-x="719" d="M331 -10Q251 -10 190 20T95 104T60 232Q60 302 86 363T159 470T267 542T400 568Q480 568 538 538T627 454T659 332Q659 277 636 226T569 141T465 107Q423 107 410 128T403 188L405 198Q370 154
339 131T274 108Q242 108 222 132T201 206Q201 250 217 294T262 376T326 435T401 457Q420 457 438 451T469 437L490 452H506L461 212Q453 165 457 149T488 132Q524 132 554 158T602 229T621 329Q621 392 593 440T511 516T385 544Q300 544 238 505T142 399T107 250Q107
175 137 122T222 40T350 12Q410 12 455 25T541 65L549 49Q502 20 450 5T331 -10ZM255 222Q255 145 299 145Q328 145 356 169T409 222L443 405Q431 417 417 425T381 433Q344 433 316 402T272 323T255 222Z" />
<glyph unicode="A" glyph-name="uni0041" horiz-adv-x="677" d="M-15 0L-11 15L40 38L389 665H419L543 42L597 15L594 0H384L387 15L474 40L435 247H202L88 37L170 15L167 0H-15ZM223 286H427L374 566L223 286Z" />
<glyph unicode="B" glyph-name="uni0042" horiz-adv-x="577" d="M10 0L13 15L91 43L192 618L123 645L126 660H313Q406 660 460 625T515 519Q515 466 476 418T366 349Q441 336 478 296T515 196Q515 144 482 99T390 27T250 0H10ZM312 620H260L214 360H272Q356 360
399 403T443 508Q443 564 412 592T312 620ZM284 321H207L158 39H256Q350 39 396 83T443 195Q443 261 402 291T284 321Z" />
<glyph unicode="C" glyph-name="uni0043" horiz-adv-x="666" d="M322 -10Q242 -10 184 24T93 118T60 260Q60 341 89 415T169 546T289 637T437 670Q498 670 536 657T615 621L592 462H576L548 584Q521 609 491 620T420 632Q350 632 297 604T207 526T152 413T133
277Q133 202 161 145T237 56T344 24Q384 24 416 36T477 64L551 189H567L532 39Q489 16 443 3T322 -10Z" />
<glyph unicode="D" glyph-name="uni0044" horiz-adv-x="703" d="M10 0L14 15L90 43L191 617L122 645L126 660H325Q440 660 512 625T617 529T650 392Q650 343 636 290T592 185T516 92T406 25T260 0H10ZM312 621H261L158 39H270Q371 39 439 82T543 202T578 385Q578
494 513 557T312 621Z" />
<glyph unicode="E" glyph-name="uni0045" horiz-adv-x="583" d="M10 0L14 15L90 43L191 617L122 645L126 660H555L526 493H510L486 621H261L215 361H377L426 444H443L407 239H389L371 321H208L158 39H422L492 177H508L477 0H10Z" />
<glyph unicode="F" glyph-name="uni0046" horiz-adv-x="575" d="M10 0L14 15L90 43L191 617L122 645L126 660H553L524 493H508L484 621H261L215 361H373L421 444H438L402 239H385L366 321H208L159 43L243 15L240 0H10Z" />
<glyph unicode="G" glyph-name="uni0047" horiz-adv-x="713" d="M313 -10Q235 -10 178 25T91 121T60 260Q60 338 88 411T167 542T286 635T436 670Q503 670 546 658T631 621L608 467H592L563 583Q535 609 503 620T425 632Q354 632 299 605T207 529T150 419T131
287Q131 168 189 101T348 33Q379 33 410 39T475 60L507 245L426 275L430 290H647L644 275L571 246L540 69Q494 33 432 12T313 -10Z" />
<glyph unicode="H" glyph-name="uni0048" horiz-adv-x="748" d="M10 0L12 15L87 43L189 618L114 645L118 660H338L335 645L257 617L212 361H544L590 618L514 645L517 660H738L734 645L658 617L556 42L633 15L630 0H410L412 15L488 43L537 322H205L155 42L233 15L231
0H10Z" />
<glyph unicode="I" glyph-name="uni0049" horiz-adv-x="346" d="M9 0L12 15L87 43L189 618L119 645L122 660H336L333 645L257 618L155 43L227 15L224 0H9Z" />
<glyph unicode="J" glyph-name="uni004A" horiz-adv-x="353" d="M-32 -173Q-46 -173 -55 -164T-58 -134L-43 -95H-38Q-23 -100 -14 -102T7 -104Q27 -104 43 -93T74 -49T99 51L200 618L131 645L134 660H348L345 645L269 618L198 224Q177 105 149 23T75 -104Q44
-134 27 -149T-3 -168T-32 -173Z" />
<glyph unicode="K" glyph-name="uni004B" horiz-adv-x="666" d="M9 0L12 15L90 43L191 618L123 645L126 660H341L337 645L261 618L212 340L520 617L452 645L455 660H650L646 645L589 628L278 355L535 38L591 15L588 0H473L211 336L159 43L232 15L229 0H9Z" />
<glyph unicode="L" glyph-name="uni004C" horiz-adv-x="572" d="M10 0L14 15L90 43L191 617L123 645L126 660H350L347 645L260 617L159 39H396L478 214H495L458 0H10Z" />
<glyph unicode="M" glyph-name="uni004D" horiz-adv-x="892" d="M10 0L14 15L91 43L211 616L133 646L137 660H293L422 105L731 660H882L879 645L797 616L727 43L787 15L784 0H582L586 15L659 42L728 572L405 -5H376L245 572L139 42L209 15L206 0H10Z" />
<glyph unicode="N" glyph-name="uni004E" horiz-adv-x="744" d="M9 0L12 15L91 43L192 617L117 645L120 660H254L527 131L613 618L524 645L528 660H737L734 645L659 618L550 -5H522L229 554L139 44L223 15L220 0H9Z" />
<glyph unicode="O" glyph-name="uni004F" horiz-adv-x="729" d="M309 -10Q234 -10 178 25T91 122T60 265Q60 346 87 419T164 548T278 637T420 670Q496 670 551 635T638 538T669 395Q669 318 643 246T569 116T454 24T309 -10ZM336 24Q391 24 438 51T522 127T578
241T598 383Q598 459 572 516T501 606T396 638Q339 638 291 611T206 534T151 420T131 279Q131 204 157 147T229 57T336 24Z" />
<glyph unicode="P" glyph-name="uni0050" horiz-adv-x="576" d="M9 0L12 15L90 43L191 618L123 645L126 660H317Q421 660 483 621T546 500Q546 445 515 398T425 323T285 294H203L159 43L243 15L240 0H9ZM261 621L210 332H291Q384 332 429 377T474 494Q474 558
431 589T316 621H261Z" />
<glyph unicode="Q" glyph-name="uni0051" horiz-adv-x="738" d="M580 -148Q546 -148 505 -138T414 -99T304 -10Q230 -9 175 26T90 122T60 265Q60 346 87 419T164 548T278 637T420 670Q496 670 551 635T638 538T669 395Q669 328 649 265T593 147T505 55T391 0Q450
-48 494 -73T574 -106T640 -115Q661 -115 679 -112T709 -103L706 -122Q683 -133 650 -140T580 -148ZM336 24Q391 24 438 51T522 127T578 241T598 383Q598 459 572 516T501 606T396 638Q339 638 291 611T206 534T151 420T131 279Q131 204 157 147T229 57T336 24Z"
/>
<glyph unicode="R" glyph-name="uni0052" horiz-adv-x="589" d="M9 0L12 15L90 43L191 618L122 645L125 660H311Q406 660 459 621T512 515Q512 451 473 401T357 328L494 39L549 15L546 0H433L293 313H207L159 43L224 15L221 0H9ZM309 621H261L214 352H285Q336
352 370 373T422 429T440 502Q440 557 407 589T309 621Z" />
<glyph unicode="S" glyph-name="uni0053" horiz-adv-x="493" d="M185 -10Q130 -10 92 2T16 36L35 189H51L81 71Q103 48 134 37T198 25Q268 25 306 66T345 175Q345 208 331 232T288 277T216 325Q158 361 132 395T106 479Q106 530 134 573T208 643T306 670Q348 670
383 659T452 628L434 479H418L392 592Q378 608 353 621T294 634Q238 634 202 599T165 505Q165 465 188 435T274 366Q321 338 351 313T395 259T409 190Q409 138 380 92T299 18T185 -10Z" />
<glyph unicode="T" glyph-name="uni0054" horiz-adv-x="643" d="M137 0L141 15L242 45L345 621H167L90 472H75L108 660H663L630 472H614L591 621H414L311 45L404 15L401 0H137Z" />
<glyph unicode="U" glyph-name="uni0055" horiz-adv-x="755" d="M334 -10Q242 -10 184 36T125 185Q125 202 127 219T132 256L196 618L125 645L128 660H350L346 645L265 618L204 271Q200 251 198 232T196 195Q196 108 241 71T359 34Q400 34 440 55T512 121T556
236L624 618L537 645L540 660H752L749 645L672 618L608 256Q591 160 552 102T458 17T334 -10Z" />
<glyph unicode="V" glyph-name="uni0056" horiz-adv-x="668" d="M268 -5L149 621L90 645L93 660H304L301 645L221 621L315 107H320L584 622L508 645L511 660H692L689 645L632 622L298 -5H268Z" />
<glyph unicode="W" glyph-name="uni0057" horiz-adv-x="945" d="M223 -5L152 621L90 645L93 660H306L303 645L221 619L270 121H276L536 665H563L647 121H652L866 622L790 645L793 660H979L976 645L916 623L630 -5H604L519 526H514L249 -5H223Z" />
<glyph unicode="X" glyph-name="uni0058" horiz-adv-x="683" d="M-25 0L-22 15L61 45L316 333L171 617L104 645L107 660H331L328 645L244 622L243 618L368 374L572 617V621L494 645L497 660H698L695 645L630 620L385 339L535 46L607 15L604 0H367L370 15L461 42V46L334
297L118 46V42L195 15L192 0H-25Z" />
<glyph unicode="Y" glyph-name="uni0059" horiz-adv-x="672" d="M170 0L173 15L262 45L310 310L158 618L92 645L96 660H315L311 645L232 622V618L363 347L576 617V621L503 645L507 660H699L696 645L633 622L378 310L330 45L411 15L408 0H170Z" />
<glyph unicode="Z" glyph-name="uni005A" horiz-adv-x="616" d="M35 0L39 27L490 621H219L147 486H132L162 660H581L576 633L129 42H423L494 184H510L477 0H35Z" />
<glyph unicode="[" glyph-name="uni005B" horiz-adv-x="250" d="M13 -150L162 740H317L314 722H203L61 -132H172L168 -150H13Z" />
<glyph unicode="\" glyph-name="uni005C" horiz-adv-x="319" d="M220 -120L60 750H99L259 -120H220Z" />
<glyph unicode="]" glyph-name="uni005D" horiz-adv-x="250" d="M-65 -150L-62 -132H49L191 722H81L84 740H240L91 -150H-65Z" />
<glyph unicode="^" glyph-name="uni005E" horiz-adv-x="500" d="M29 250L293 670H328L453 250H413L304 617L73 250H29Z" />
<glyph unicode="_" glyph-name="uni005F" horiz-adv-x="500" d="M25 -130L31 -100H468L462 -130H25Z" />
<glyph unicode="`" glyph-name="uni0060" horiz-adv-x="500" d="M314 530L192 653Q178 666 176 680T178 707H231L324 530H314Z" />
<glyph unicode="a" glyph-name="uni0061.sc" horiz-adv-x="601" d="M-15 0L-12 15L35 36L336 565H367L473 37L521 15L518 0H331L334 15L408 37L374 209H177L81 35L149 15L146 0H-15ZM197 245H367L322 472L197 245Z" />
<glyph unicode="b" glyph-name="uni0062.sc" horiz-adv-x="518" d="M10 0L13 15L81 41L168 520L108 545L111 560H281Q362 560 409 531T456 441Q456 393 423 353T330 296Q393 284 424 251T456 166Q456 122 428 84T348 23T226 0H10ZM278 523H231L192 308H243Q316
308 353 344T391 432Q391 523 278 523ZM254 271H185L143 37H231Q310 37 350 73T391 166Q391 221 356 246T254 271Z" />
<glyph unicode="c" glyph-name="uni0063.sc" horiz-adv-x="600" d="M298 -10Q188 -10 124 53T60 225Q60 295 84 357T152 468T257 543T393 571Q447 571 480 560T549 529L529 394H513L489 495Q446 534 378 534Q296 534 240 494T155 386T126 239Q126 136 175 79T311
22Q348 22 376 31T427 55L491 160H506L476 33Q442 14 401 2T298 -10Z" />
<glyph unicode="d" glyph-name="uni0064.sc" horiz-adv-x="632" d="M10 0L13 15L81 43L168 517L109 545L112 560H303Q443 560 511 496T579 330Q579 237 538 163T419 44T230 0H10ZM286 523H233L144 37H228Q376 37 444 114T513 321Q513 416 458 469T286 523Z" />
<glyph unicode="e" glyph-name="uni0065.sc" horiz-adv-x="521" d="M10 0L13 15L82 43L168 517L109 545L112 560H493L467 418H451L433 523H233L194 309H336L380 379H396L362 200H346L330 272H187L144 37H376L435 151H451L424 0H10Z" />
<glyph unicode="f" glyph-name="uni0066.sc" horiz-adv-x="513" d="M10 0L13 15L82 43L168 517L108 545L111 560H491L465 418H449L430 523H232L193 309H331L376 379H391L357 200H342L325 272H187L145 43L218 15L215 0H10Z" />
<glyph unicode="g" glyph-name="uni0067.sc" horiz-adv-x="638" d="M281 -10Q214 -10 165 20T88 102T60 220Q60 292 84 355T153 467T257 543T389 571Q447 571 484 561T558 529L538 394H522L498 493Q454 534 380 534Q300 534 243 495T156 389T126 241Q126 140 175
82T311 23Q336 23 361 27T413 43L441 205L371 230L374 245H571L568 230L505 205L477 51Q440 22 390 6T281 -10Z" />
<glyph unicode="h" glyph-name="uni0068.sc" horiz-adv-x="656" d="M10 0L13 15L77 43L163 517L100 545L103 560H298L295 545L226 517L188 309H475L513 517L448 545L452 560H646L643 545L576 517L490 43L556 15L553 0H358L361 15L426 43L468 272H182L140 43L208
15L205 0H10Z" />
<glyph unicode="i" glyph-name="uni0069.sc" horiz-adv-x="302" d="M10 0L13 15L76 43L161 517L102 545L105 560H292L289 545L224 517L140 43L200 15L197 0H10Z" />
<glyph unicode="j" glyph-name="uni006A.sc" horiz-adv-x="297" d="M-37 -147Q-49 -147 -56 -139T-59 -114L-46 -76H-41Q-30 -79 -24 -81T-7 -83Q12 -83 27 -73T54 -36T75 44L160 517L102 545L105 560H292L289 545L223 517L165 191Q147 90 122 19T58 -89Q22 -124
3 -135T-37 -147Z" />
<glyph unicode="k" glyph-name="uni006B.sc" horiz-adv-x="584" d="M10 0L13 15L80 43L165 517L107 545L110 560H300L297 545L229 517L143 43L207 15L204 0H10ZM403 0L188 287L441 520L386 545L389 560H568L564 545L509 526L252 300L454 40L510 15L507 0H403Z" />
<glyph unicode="l" glyph-name="uni006C.sc" horiz-adv-x="513" d="M10 0L13 15L80 43L166 517L107 545L110 560H309L306 545L229 517L143 37H350L421 182H436L403 0H10Z" />
<glyph unicode="m" glyph-name="uni006D.sc" horiz-adv-x="782" d="M10 0L13 15L81 43L184 518L116 545L119 560H264L369 101L630 560H772L769 545L698 517L639 43L691 15L688 0H507L510 15L574 43L631 483L352 -4H326L215 489L123 43L183 15L180 0H10Z" />
<glyph unicode="n" glyph-name="uni006E.sc" horiz-adv-x="650" d="M10 0L13 15L81 43L168 517L103 545L106 560H227L461 117L532 518L457 545L460 560H642L639 545L573 518L480 -4H455L200 473L123 44L195 15L192 0H10Z" />
<glyph unicode="o" glyph-name="uni006F.sc" horiz-adv-x="653" d="M279 -10Q213 -10 164 20T87 103T60 226Q60 297 84 359T150 469T250 544T374 571Q440 571 489 541T565 459T593 336Q593 268 571 206T506 95T407 18T279 -10ZM297 25Q364 25 416 65T497 173T527
326Q527 420 484 478T357 537Q290 537 238 497T156 390T126 237Q126 143 170 84T297 25Z" />
<glyph unicode="p" glyph-name="uni0070.sc" horiz-adv-x="514" d="M10 0L12 15L80 43L166 517L108 545L111 560H285Q375 560 429 527T484 425Q484 375 457 335T379 270T259 246H180L143 43L216 15L213 0H10ZM231 523L187 283H258Q339 283 378 320T417 419Q417
471 380 497T281 523H231Z" />
<glyph unicode="q" glyph-name="uni0071.sc" horiz-adv-x="673" d="M515 -148Q481 -148 440 -138T348 -97T236 -6Q155 8 108 71T60 226Q60 297 84 359T150 469T250 544T374 571Q440 571 489 541T565 459T593 336Q593 253 560 180T466 56T325 -7Q382 -52 425 -75T504
-107T575 -115Q596 -115 614 -112T644 -103L641 -122Q618 -133 585 -140T515 -148ZM297 25Q364 25 416 65T497 173T527 326Q527 420 484 478T357 537Q290 537 238 497T156 390T126 237Q126 143 170 84T297 25Z" />
<glyph unicode="r" glyph-name="uni0072.sc" horiz-adv-x="522" d="M10 0L12 15L80 43L166 517L107 545L110 560H279Q362 560 408 527T455 436Q455 377 419 335T315 275L423 37L473 15L470 0H369L253 264H183L143 43L200 15L197 0H10ZM275 523H230L190 301H254Q320
301 354 339T388 428Q388 472 361 497T275 523Z" />
<glyph unicode="s" glyph-name="uni0073.sc" horiz-adv-x="411" d="M147 -10Q98 -10 66 0T0 29L16 160H33L57 62Q74 46 100 35T158 24Q221 24 253 56T285 142Q285 174 271 195T232 234T173 273Q124 303 101 332T78 407Q78 451 101 488T164 548T254 571Q291 571
321 562T381 535L365 408H349L328 502Q315 516 294 526T244 537Q198 537 166 510T134 434Q134 396 153 371T224 315Q283 280 312 248T342 160Q342 112 317 74T248 13T147 -10Z" />
<glyph unicode="t" glyph-name="uni0074.sc" horiz-adv-x="568" d="M129 0L132 15L221 43L309 523H155L90 399H75L105 560H588L560 399H544L526 523H373L285 43L365 15L362 0H129Z" />
<glyph unicode="u" glyph-name="uni0075.sc" horiz-adv-x="678" d="M310 -9Q230 -9 179 31T127 158Q127 186 133 217L187 518L125 545L128 560H325L322 545L251 518L199 230Q193 194 193 166Q193 93 229 62T324 31Q397 31 443 75T504 200L561 517L486 545L489
560H675L672 545L604 517L550 217Q528 98 466 45T310 -9Z" />
<glyph unicode="v" glyph-name="uni0076.sc" horiz-adv-x="590" d="M239 -4L142 522L90 545L93 560H284L281 545L207 523L282 98H287L514 525L446 545L449 560H614L611 545L560 524L269 -4H239Z" />
<glyph unicode="w" glyph-name="uni0077.sc" horiz-adv-x="833" d="M202 -4L141 524L90 545L93 560H280L277 545L208 523L250 117H255L476 565H505L577 117H581L763 524L698 545L701 560H866L863 545L811 523L563 -4H534L461 438H456L232 -4H202Z" />
<glyph unicode="x" glyph-name="uni0078.sc" horiz-adv-x="596" d="M-25 0L-22 15L53 43L273 284L151 519L90 545L93 560H295L292 545L222 523V520L325 322L494 520V523L426 545L430 560H611L608 545L550 524L342 290L471 41L535 14L532 0H319L322 14L399 38L400
41L290 252L107 43V41L174 15L171 0H-25Z" />
<glyph unicode="y" glyph-name="uni0079.sc" horiz-adv-x="596" d="M160 0L163 15L241 43L281 263L150 521L92 545L95 560H290L287 545L219 525V522L331 298L510 520V523L448 545L451 560H623L620 545L563 523L344 263L305 43L374 15L371 0H160Z" />
<glyph unicode="z" glyph-name="uni007A.sc" horiz-adv-x="550" d="M35 0L38 23L425 523H194L134 412H118L145 560H515L511 537L123 37H377L439 157H454L425 0H35Z" />
<glyph unicode="{" glyph-name="uni007B" horiz-adv-x="250" d="M167 -150H159Q95 -150 66 -123T36 -49Q36 -15 48 19T78 88T107 155T120 221Q120 247 105 267T52 287H28L31 304H54Q92 304 114 321T145 365T154 422Q154 456 147 495T139 570Q139 646 178 693T307
740H316L313 722H298Q240 722 213 685T186 589Q186 551 192 513T199 441Q199 395 179 355T95 295Q133 284 148 262T163 207Q163 181 151 148T122 78T93 6T80 -58Q80 -93 98 -112T157 -132H170L167 -150Z" />
<glyph unicode="|" glyph-name="uni007C" horiz-adv-x="250" d="M18 -250L194 750H232L56 -250H18Z" />
<glyph unicode="}" glyph-name="uni007D" horiz-adv-x="250" d="M-56 -150L-53 -132H-38Q20 -132 47 -95T74 1Q74 39 68 77T61 149Q61 195 82 235T165 295Q127 306 112 328T97 383Q97 409 109 442T139 512T168 584T181 648Q181 683 163 702T103 722H90L93 740H102Q166
740 195 713T225 639Q225 605 213 571T183 502T154 435T141 369Q141 343 155 323T208 303H232L229 286H206Q168 286 147 269T116 225T107 168Q107 134 114 95T122 20Q122 -56 82 -103T-46 -150H-56Z" />
<glyph unicode="~" glyph-name="uni007E" horiz-adv-x="500" d="M339 201Q301 201 278 217T236 254T197 292T147 308Q111 308 90 278T60 201H23Q35 268 68 305T151 343Q188 343 212 327T254 290T293 252T343 236Q379 236 400 266T430 343H467Q455 276 422 239T339 201Z" />
<glyph unicode="&#xa0;" glyph-name="uni00A0" horiz-adv-x="245" />
<glyph unicode="&#xa1;" glyph-name="uni00A1.sc" horiz-adv-x="211" d="M141 462Q119 462 109 475T98 507Q98 528 113 546T153 565Q176 565 186 553T196 520Q196 499 181 481T141 462ZM15 0L118 391H133L83 0H15Z" />
<glyph unicode="&#xa2;" glyph-name="uni00A2.OT" horiz-adv-x="500" d="M107 -39L140 44Q101 62 82 102T62 200Q62 256 82 309T137 405T215 474T305 500Q314 500 323 499L351 570H383L352 493Q369 488 382 479T405 459Q421 440 421 426Q421 413 410 406L382 389H377L364
411Q357 422 350 431T334 448L190 88Q209 80 232 80Q275 80 308 106T374 184H376L391 174Q361 112 315 71T208 30Q187 30 168 34L139 -39H107ZM124 225Q124 140 164 104L308 462Q297 465 283 465Q239 465 203 432T146 345T124 225Z" />
<glyph unicode="&#xa3;" glyph-name="uni00A3.OT" horiz-adv-x="500" d="M28 0L32 25Q118 90 155 138T192 236Q192 256 187 276T175 318H79L85 350H165Q156 375 150 400T143 452Q143 493 160 532T206 602T275 651T360 670Q409 670 437 652T478 613Q489 595 489
583Q489 569 472 559L446 543H439L429 569Q417 598 396 615T334 633Q276 633 239 595T201 495Q201 459 212 423T236 350H418L411 318H246Q250 302 252 287T255 255Q255 206 222 158T115 58H358L405 155H429L392 0H28Z" />
<glyph unicode="&#xa4;" glyph-name="uni00A4" horiz-adv-x="500" d="M391 62L322 144Q301 130 277 122T224 114Q196 114 172 123T130 148L34 62L10 90L107 176Q85 211 85 255Q85 288 96 320T132 377L64 458L93 482L162 400Q203 430 260 430Q317 430 354 396L450
482L474 454L378 369Q400 333 400 291Q400 256 388 225T352 169L421 87L391 62ZM229 148Q268 148 297 167T344 217T361 288Q361 337 332 366T255 396Q197 396 160 357T123 257Q123 208 152 178T229 148Z" />
<glyph unicode="&#xa5;" glyph-name="uni00A5.OT" horiz-adv-x="500" d="M82 0L85 15L172 42L194 171H92L98 202H200L220 321H118L124 352H203L88 500L60 515L62 530H226L223 515L166 496V494L269 353L403 491V493L352 515L355 530H510L508 515L460 497L304 352H389L383
321H280L259 202H363L358 171H254L231 42L310 15L307 0H82Z" />
<glyph unicode="&#xa6;" glyph-name="uni00A6" horiz-adv-x="250" d="M123 350L193 750H232L162 350H123ZM17 -250L88 150H126L55 -250H17Z" />
<glyph unicode="&#xa7;" glyph-name="uni00A7" horiz-adv-x="465" d="M99 -119Q75 -119 54 -110T21 -87Q7 -70 10 -60Q11 -56 14 -50T26 -37L50 -17H55L73 -38Q86 -53 103 -64T148 -75Q202 -75 236 -42T270 41Q270 74 252 92T207 121T148 140T90 161T45 194T27
253Q27 308 63 349T161 410Q144 422 134 440T124 485Q124 531 152 573T228 642T338 669Q360 669 377 661T405 639Q410 632 413 626T415 613Q415 607 402 595L375 573H371L353 596Q341 611 325 619T285 628Q257 628 232 615T191 577T175 519Q175 487 192 468T236
438T293 418T350 396T394 362T411 303Q411 248 377 209T282 150Q300 138 310 120T321 72Q321 22 291 -21T210 -92T99 -119ZM80 283Q80 251 96 233T137 204T192 186T249 168Q277 170 302 184T343 222T359 274Q359 306 343 325T302 354T248 373T193 393Q143 389 112
358T80 283Z" />
<glyph unicode="&#xa8;" glyph-name="uni00A8" horiz-adv-x="500" d="M167 577Q150 577 138 588T126 617Q126 634 138 646T167 658Q184 658 195 646T207 617Q207 600 196 589T167 577ZM333 577Q316 577 305 588T293 617Q293 634 304 646T333 658Q350 658 362 646T374
617Q374 600 362 589T333 577Z" />
<glyph unicode="&#xa9;" glyph-name="uni00A9" horiz-adv-x="806" d="M361 -10Q274 -10 208 29T104 135T66 287Q66 364 93 433T170 555T290 639T444 670Q531 670 597 631T702 525T740 374Q740 298 713 229T635 106T515 21T361 -10ZM363 19Q437 19 499 46T608 121T680
232T706 370Q706 447 674 508T582 605T442 641Q368 641 306 614T198 540T126 428T100 291Q100 213 133 152T226 55T363 19ZM382 129Q307 129 265 174T222 293Q222 357 251 413T333 505T451 540Q490 540 514 532T564 510L549 407H529L514 477Q496 492 479 499T441
506Q392 506 355 478T297 402T276 296Q276 234 306 198T391 162Q413 162 429 168T461 182L508 257H529L506 162Q478 147 449 138T382 129Z" />
<glyph unicode="&#xaa;" glyph-name="uni00AA" horiz-adv-x="389" d="M155 417Q134 417 120 435T105 488Q105 530 124 572T175 642T244 670Q261 670 274 665T297 651L325 667H333L300 487Q296 465 298 457T308 449Q326 449 347 492L358 487Q342 450 323 434T283
417Q239 417 250 476L251 479H248Q222 447 201 432T155 417ZM155 502Q155 452 183 452Q202 452 221 470T256 509L277 630Q261 650 236 650Q210 650 192 628T165 571T155 502ZM80 299L87 337H308L301 299H80Z" />
<glyph unicode="&#xab;" glyph-name="uni00AB" horiz-adv-x="386" d="M17 247L206 424H219L86 248L167 70H154L17 247ZM167 247L356 424H369L236 248L317 70H304L167 247Z" />
<glyph unicode="&#xac;" glyph-name="uni00AC" horiz-adv-x="500" d="M372 62L405 254H35L42 290H450L410 62H372Z" />
<glyph unicode="&#xad;" glyph-name="uni00AD" horiz-adv-x="353" d="M40 233L48 281H310L302 233H40Z" />
<glyph unicode="&#xae;" glyph-name="uni00AE" horiz-adv-x="500" d="M243 238Q188 238 146 263T80 330T56 427Q56 492 86 547T170 636T296 670Q351 670 393 646T460 579T484 482Q484 417 454 362T369 272T243 238ZM246 262Q306 262 353 290T428 368T456 480Q456
527 436 564T379 624T291 646Q232 646 186 618T112 541T84 428Q84 381 104 344T161 284T246 262ZM148 329L149 337L180 348L218 566L191 577L192 584H281Q353 584 353 529Q353 504 338 485T291 456L337 346L358 337L357 329H304L257 449H232L214 348L240 337L239
329H148ZM269 565H252L235 467H255Q284 467 300 484T317 526Q317 565 269 565Z" />
<glyph unicode="&#xaf;" glyph-name="uni00AF" horiz-adv-x="500" d="M123 599L130 635H376L369 599H123Z" />
<glyph unicode="&#xb0;" glyph-name="uni00B0" horiz-adv-x="500" d="M287 410Q250 410 221 428T174 475T157 540Q157 575 174 604T220 652T287 670Q324 670 353 652T400 605T417 540Q417 505 400 476T354 428T287 410ZM287 444Q326 444 353 470T380 540Q380 584
353 610T287 636Q249 636 222 610T194 540Q194 496 221 470T287 444Z" />
<glyph unicode="&#xb1;" glyph-name="uni00B1" horiz-adv-x="500" d="M451 294H266L241 152H202L227 294H42L49 330H233L260 482H299L272 330H457L451 294ZM411 69H3L9 105H418L411 69Z" />
<glyph unicode="&#xb2;" glyph-name="uni00B2" horiz-adv-x="314" d="M69 505L72 522Q144 592 187 638T254 714T284 768T292 816Q292 842 276 858T234 875Q181 875 169 808L165 785L160 780H135Q125 780 120 782T118 801Q121 817 130 833T161 864Q183 880 204
890T258 900Q298 900 323 877T348 817Q348 795 342 775T314 726T250 657T132 551H278L315 610H325L302 505H69Z" />
<glyph unicode="&#xb3;" glyph-name="uni00B3" horiz-adv-x="308" d="M179 495Q149 495 128 503T94 523Q74 539 74 560Q74 587 94 587H123L125 583L123 564Q115 517 180 517Q220 517 245 544T270 616Q270 653 248 672T188 692H154L158 716H176Q225 716 255 746T285
819Q285 846 271 862T231 878Q208 878 192 866T171 827L167 802L162 798H137Q129 798 124 800T120 814Q122 844 162 872Q180 885 200 892T246 900Q290 900 316 876T342 816Q342 780 311 751T232 711Q277 705 302 680T327 617Q327 585 307 557T253 512T179 495Z"
/>
<glyph unicode="&#xb4;" glyph-name="uni00B4" horiz-adv-x="500" d="M165 530L273 707H335Q332 692 324 680T298 651L175 530H165Z" />
<glyph unicode="&#xb5;" glyph-name="uni00B5" horiz-adv-x="539" d="M19 -230H17L136 450H194L140 134Q133 92 144 64T194 36Q218 36 241 50T288 87T331 132L387 450H445L376 51Q389 35 423 35H469L471 33V31Q458 15 437 3T387 -10Q349 -10 332 14T322 78L325
97H321Q288 58 264 35T217 1T169 -10Q124 -10 104 29L83 -214L19 -230Z" />
<glyph unicode="&#xb6;" glyph-name="uni00B6" horiz-adv-x="450" d="M146 -110L230 359H193Q125 359 84 396T42 492Q42 544 68 581T138 639T238 660H322L183 -110H146ZM244 -110L382 660H493L490 645L413 618L282 -110H244Z" />
<glyph unicode="&#xb7;" glyph-name="uni00B7.sc" horiz-adv-x="250" d="M119 222Q97 222 88 234T78 265Q78 287 92 304T130 321Q151 321 161 309T171 278Q171 256 157 239T119 222Z" />
<glyph unicode="&#xb8;" glyph-name="uni00B8" horiz-adv-x="500" d="M234 -240Q212 -240 193 -234T163 -215L165 -205H168Q195 -220 228 -220Q260 -220 278 -206T296 -166Q296 -138 275 -123T200 -95L270 15H294L245 -63Q292 -76 314 -97T337 -154Q337 -192 308
-216T234 -240Z" />
<glyph unicode="&#xb9;" glyph-name="uni00B9" horiz-adv-x="273" d="M109 505L111 514L165 534L218 836L116 784L120 804L261 890H282L219 534L263 514L261 505H109Z" />
<glyph unicode="&#xba;" glyph-name="uni00BA" horiz-adv-x="387" d="M192 417Q146 417 122 445T98 517Q98 558 116 592T164 648T234 670Q280 670 304 642T328 570Q328 534 311 499T263 440T192 417ZM199 435Q222 435 239 454T265 504T274 571Q274 606 264 629T228
653Q193 653 173 613T152 519Q152 484 163 460T199 435ZM60 299L66 337H288L281 299H60Z" />
<glyph unicode="&#xbb;" glyph-name="uni00BB" horiz-adv-x="386" d="M219 247L30 70H17L150 246L69 424H83L219 247ZM369 247L180 70H167L300 246L219 424H233L369 247Z" />
<glyph unicode="&#xbc;" glyph-name="uni00BC" horiz-adv-x="686" d="M82 355L84 364L138 384L191 686L89 634L93 654L234 740H255L192 384L236 364L234 355H82ZM15 11L619 750L645 729L41 -10L15 11ZM489 0L508 109H353L356 124L590 385H611L568 144H636L631
109H562L543 0H489ZM404 144H514L542 301L404 144Z" />
<glyph unicode="&#xbd;" glyph-name="uni00BD" horiz-adv-x="686" d="M82 355L84 364L138 384L191 686L89 634L93 654L234 740H255L192 384L236 364L234 355H82ZM15 11L619 750L645 729L41 -10L15 11ZM360 0L363 17Q435 87 478 133T545 209T575 263T583 311Q583
337 567 353T525 370Q472 370 460 303L456 280L451 275H426Q416 275 411 277T409 296Q412 312 421 328T452 359Q474 375 495 385T549 395Q589 395 614 372T639 312Q639 290 633 270T605 221T541 152T423 46H569L606 105H616L593 0H360Z" />
<glyph unicode="&#xbe;" glyph-name="uni00BE" horiz-adv-x="686" d="M152 345Q122 345 101 353T67 373Q47 389 47 410Q47 437 67 437H96L98 433L96 414Q88 367 153 367Q193 367 218 394T243 466Q243 503 221 522T161 542H127L131 566H149Q198 566 228 596T258
669Q258 696 244 712T204 728Q181 728 165 716T144 677L140 652L135 648H110Q102 648 97 650T93 664Q95 694 135 722Q153 735 173 742T219 750Q263 750 289 726T315 666Q315 630 284 601T205 561Q250 555 275 530T300 467Q300 435 280 407T226 362T152 345ZM50
11L654 750L680 729L76 -10L50 11ZM506 0L525 109H370L373 124L607 385H628L585 144H653L648 109H579L560 0H506ZM421 144H531L559 301L421 144Z" />
<glyph unicode="&#xbf;" glyph-name="uni00BF.sc" horiz-adv-x="371" d="M236 463Q214 463 204 475T193 507Q193 529 208 547T248 566Q270 566 280 553T291 520Q291 499 276 481T236 463ZM222 -10Q192 -10 159 2T96 34T49 81T30 138Q30 175 50 195T99 228T157
250T206 276T226 322Q226 342 218 357T195 387L205 397Q266 346 266 298Q266 267 252 248T214 218T165 199T116 181T79 158T64 119Q64 81 95 61T176 41Q185 41 195 42T217 46L252 53L264 48L273 26Q277 18 277 12Q277 3 266 -3T222 -10Z" />
<glyph unicode="&#xc0;" glyph-name="uni00C0" horiz-adv-x="677" d="M-15 0L-11 15L40 38L389 665H419L543 42L597 15L594 0H384L387 15L474 40L435 247H202L88 37L170 15L167 0H-15ZM223 286H427L374 566L223 286ZM403 710L281 808Q266 819 265 833T266 862H319L413
710H403Z" />
<glyph unicode="&#xc1;" glyph-name="uni00C1" horiz-adv-x="677" d="M-15 0L-11 15L40 38L389 665H419L543 42L597 15L594 0H384L387 15L474 40L435 247H202L88 37L170 15L167 0H-15ZM223 286H427L374 566L223 286ZM403 710L511 862H573Q570 847 563 834T536
806L413 710H403Z" />
<glyph unicode="&#xc2;" glyph-name="uni00C2" horiz-adv-x="677" d="M-15 0L-11 15L40 38L389 665H419L543 42L597 15L594 0H384L387 15L474 40L435 247H202L88 37L170 15L167 0H-15ZM223 286H427L374 566L223 286ZM269 710L423 862H445L536 710H526L424 801L279
710H269Z" />
<glyph unicode="&#xc3;" glyph-name="uni00C3" horiz-adv-x="677" d="M-15 0L-11 15L40 38L389 665H419L543 42L597 15L594 0H384L387 15L474 40L435 247H202L88 37L170 15L167 0H-15ZM223 286H427L374 566L223 286ZM273 727Q295 776 311 800T341 832T372 841Q391
841 406 830T434 805T459 779T487 768Q504 768 519 783T557 841H570Q549 792 533 768T503 736T471 727Q453 727 438 738T410 763T385 789T357 800Q339 800 324 785T286 727H273Z" />
<glyph unicode="&#xc4;" glyph-name="uni00C4" horiz-adv-x="677" d="M-15 0L-11 15L40 38L389 665H419L543 42L597 15L594 0H384L387 15L474 40L435 247H202L88 37L170 15L167 0H-15ZM223 286H427L374 566L223 286ZM333 745Q316 745 305 757T293 786Q293 803
304 815T333 827Q350 827 362 815T374 786Q374 769 362 757T333 745ZM511 745Q494 745 482 757T470 786Q470 803 482 815T511 827Q528 827 539 815T551 786Q551 769 540 757T511 745Z" />
<glyph unicode="&#xc5;" glyph-name="uni00C5" horiz-adv-x="677" d="M-15 0L-11 15L40 38L389 665H419L543 42L597 15L594 0H384L387 15L474 40L435 247H202L88 37L170 15L167 0H-15ZM223 286H427L374 566L223 286ZM408 710Q374 710 358 728T342 776Q342 814
368 843T435 872Q467 872 484 853T501 805Q501 768 476 739T408 710ZM413 729Q437 729 450 751T464 804Q464 825 457 839T430 853Q407 853 393 833T378 777Q378 756 385 743T413 729Z" />
<glyph unicode="&#xc6;" glyph-name="uni00C6" horiz-adv-x="909" d="M-15 0L-11 15L43 37L512 660H881L852 493H836L812 621H587L541 361H704L752 444H769L733 239H716L697 321H534L485 39H748L818 177H834L803 0H336L340 15L416 43L452 247H251L94 36L170 15L167
0H-15ZM280 286H459L516 604L280 286Z" />
<glyph unicode="&#xc7;" glyph-name="uni00C7" horiz-adv-x="666" d="M290 -240Q268 -240 249 -234T219 -215L221 -205H224Q251 -220 284 -220Q316 -220 334 -206T352 -166Q352 -138 331 -123T256 -95L310 -10Q234 -7 178 27T91 121T60 260Q60 341 89 415T169
546T289 637T437 670Q498 670 536 657T615 621L592 462H576L548 584Q521 609 491 620T420 632Q350 632 297 604T207 526T152 413T133 277Q133 202 161 145T237 56T344 24Q384 24 416 36T477 64L551 189H567L532 39Q491 17 447 4T334 -10L301 -63Q348 -76 370 -97T393
-154Q393 -192 364 -216T290 -240Z" />
<glyph unicode="&#xc8;" glyph-name="uni00C8" horiz-adv-x="583" d="M10 0L14 15L90 43L191 617L122 645L126 660H555L526 493H510L486 621H261L215 361H377L426 444H443L407 239H389L371 321H208L158 39H422L492 177H508L477 0H10ZM373 710L251 808Q236 819
235 833T236 862H289L383 710H373Z" />
<glyph unicode="&#xc9;" glyph-name="uni00C9" horiz-adv-x="583" d="M10 0L14 15L90 43L191 617L122 645L126 660H555L526 493H510L486 621H261L215 361H377L426 444H443L407 239H389L371 321H208L158 39H422L492 177H508L477 0H10ZM373 710L481 862H543Q540
847 533 834T506 806L383 710H373Z" />
<glyph unicode="&#xca;" glyph-name="uni00CA" horiz-adv-x="583" d="M10 0L14 15L90 43L191 617L122 645L126 660H555L526 493H510L486 621H261L215 361H377L426 444H443L407 239H389L371 321H208L158 39H422L492 177H508L477 0H10ZM239 710L393 862H415L506
710H496L394 801L249 710H239Z" />
<glyph unicode="&#xcb;" glyph-name="uni00CB" horiz-adv-x="583" d="M10 0L14 15L90 43L191 617L122 645L126 660H555L526 493H510L486 621H261L215 361H377L426 444H443L407 239H389L371 321H208L158 39H422L492 177H508L477 0H10ZM303 745Q286 745 275 757T263
786Q263 803 274 815T303 827Q320 827 332 815T344 786Q344 769 332 757T303 745ZM481 745Q464 745 452 757T440 786Q440 803 452 815T481 827Q498 827 509 815T521 786Q521 769 510 757T481 745Z" />
<glyph unicode="&#xcc;" glyph-name="uni00CC" horiz-adv-x="346" d="M9 0L12 15L87 43L189 618L119 645L122 660H336L333 645L257 618L155 43L227 15L224 0H9ZM234 710L112 808Q97 819 96 833T97 862H150L244 710H234Z" />
<glyph unicode="&#xcd;" glyph-name="uni00CD" horiz-adv-x="346" d="M9 0L12 15L87 43L189 618L119 645L122 660H336L333 645L257 618L155 43L227 15L224 0H9ZM234 710L342 862H404Q401 847 394 834T367 806L244 710H234Z" />
<glyph unicode="&#xce;" glyph-name="uni00CE" horiz-adv-x="346" d="M9 0L12 15L87 43L189 618L119 645L122 660H336L333 645L257 618L155 43L227 15L224 0H9ZM100 710L254 862H276L367 710H357L255 801L110 710H100Z" />
<glyph unicode="&#xcf;" glyph-name="uni00CF" horiz-adv-x="346" d="M9 0L12 15L87 43L189 618L119 645L122 660H336L333 645L257 618L155 43L227 15L224 0H9ZM164 745Q147 745 136 757T124 786Q124 803 135 815T164 827Q181 827 193 815T205 786Q205 769 193
757T164 745ZM342 745Q325 745 313 757T301 786Q301 803 313 815T342 827Q359 827 370 815T382 786Q382 769 371 757T342 745Z" />
<glyph unicode="&#xd0;" glyph-name="uni00D0" horiz-adv-x="703" d="M10 0L14 15L90 43L140 326H67L74 361H146L191 617L122 645L126 660H325Q440 660 512 625T617 529T650 392Q650 343 636 290T592 185T516 92T406 25T260 0H10ZM385 326H209L158 39H270Q371
39 439 82T543 202T578 385Q578 494 513 557T312 621H261L215 361H392L385 326Z" />
<glyph unicode="&#xd1;" glyph-name="uni00D1" horiz-adv-x="744" d="M9 0L12 15L91 43L192 617L117 645L120 660H254L527 131L613 618L524 645L528 660H737L734 645L659 618L550 -5H522L229 554L139 44L223 15L220 0H9ZM318 727Q340 776 356 800T386 832T417
841Q436 841 451 830T479 805T504 779T532 768Q549 768 564 783T602 841H615Q594 792 578 768T548 736T516 727Q498 727 483 738T455 763T430 789T402 800Q384 800 369 785T331 727H318Z" />
<glyph unicode="&#xd2;" glyph-name="uni00D2" horiz-adv-x="729" d="M309 -10Q234 -10 178 25T91 122T60 265Q60 346 87 419T164 548T278 637T420 670Q496 670 551 635T638 538T669 395Q669 318 643 246T569 116T454 24T309 -10ZM336 24Q391 24 438 51T522 127T578
241T598 383Q598 459 572 516T501 606T396 638Q339 638 291 611T206 534T151 420T131 279Q131 204 157 147T229 57T336 24ZM422 710L300 808Q285 819 284 833T285 862H338L432 710H422Z" />
<glyph unicode="&#xd3;" glyph-name="uni00D3" horiz-adv-x="729" d="M309 -10Q234 -10 178 25T91 122T60 265Q60 346 87 419T164 548T278 637T420 670Q496 670 551 635T638 538T669 395Q669 318 643 246T569 116T454 24T309 -10ZM336 24Q391 24 438 51T522 127T578
241T598 383Q598 459 572 516T501 606T396 638Q339 638 291 611T206 534T151 420T131 279Q131 204 157 147T229 57T336 24ZM423 710L531 862H593Q590 847 583 834T556 806L433 710H423Z" />
<glyph unicode="&#xd4;" glyph-name="uni00D4" horiz-adv-x="729" d="M309 -10Q234 -10 178 25T91 122T60 265Q60 346 87 419T164 548T278 637T420 670Q496 670 551 635T638 538T669 395Q669 318 643 246T569 116T454 24T309 -10ZM336 24Q391 24 438 51T522 127T578
241T598 383Q598 459 572 516T501 606T396 638Q339 638 291 611T206 534T151 420T131 279Q131 204 157 147T229 57T336 24ZM288 710L442 862H464L555 710H545L443 801L298 710H288Z" />
<glyph unicode="&#xd5;" glyph-name="uni00D5" horiz-adv-x="729" d="M309 -10Q234 -10 178 25T91 122T60 265Q60 346 87 419T164 548T278 637T420 670Q496 670 551 635T638 538T669 395Q669 318 643 246T569 116T454 24T309 -10ZM336 24Q391 24 438 51T522 127T578
241T598 383Q598 459 572 516T501 606T396 638Q339 638 291 611T206 534T151 420T131 279Q131 204 157 147T229 57T336 24ZM292 727Q314 776 330 800T360 832T391 841Q410 841 425 830T453 805T478 779T506 768Q523 768 538 783T576 841H589Q568 792 552 768T522
736T490 727Q472 727 457 738T429 763T404 789T376 800Q358 800 343 785T305 727H292Z" />
<glyph unicode="&#xd6;" glyph-name="uni00D6" horiz-adv-x="729" d="M309 -10Q234 -10 178 25T91 122T60 265Q60 346 87 419T164 548T278 637T420 670Q496 670 551 635T638 538T669 395Q669 318 643 246T569 116T454 24T309 -10ZM336 24Q391 24 438 51T522 127T578
241T598 383Q598 459 572 516T501 606T396 638Q339 638 291 611T206 534T151 420T131 279Q131 204 157 147T229 57T336 24ZM352 745Q335 745 324 757T312 786Q312 803 323 815T352 827Q369 827 381 815T393 786Q393 769 381 757T352 745ZM530 745Q513 745 501 757T489
786Q489 803 501 815T530 827Q547 827 558 815T570 786Q570 769 559 757T530 745Z" />
<glyph unicode="&#xd7;" glyph-name="uni00D7" horiz-adv-x="500" d="M55 91L32 119L213 273L88 428L119 453L244 299L425 453L448 425L267 271L392 116L361 91L236 245L55 91Z" />
<glyph unicode="&#xd8;" glyph-name="uni00D8" horiz-adv-x="729" d="M5 -10L107 94Q60 165 60 265Q60 346 87 419T164 548T278 637T420 670Q475 670 520 651T598 597L670 670H724L622 566Q669 495 669 395Q669 318 643 246T569 116T454 24T309 -10Q254 -10 209
9T131 63L59 -10H5ZM131 279Q131 204 157 146L553 551Q526 592 486 615T396 638Q339 638 291 611T206 534T151 420T131 279ZM336 24Q391 24 438 51T522 127T578 241T598 383Q598 457 573 515L177 110Q204 70 245 47T336 24Z" />
<glyph unicode="&#xd9;" glyph-name="uni00D9" horiz-adv-x="755" d="M334 -10Q242 -10 184 36T125 185Q125 202 127 219T132 256L196 618L125 645L128 660H350L346 645L265 618L204 271Q200 251 198 232T196 195Q196 108 241 71T359 34Q400 34 440 55T512 121T556
236L624 618L537 645L540 660H752L749 645L672 618L608 256Q591 160 552 102T458 17T334 -10ZM451 710L329 808Q314 819 313 833T314 862H367L461 710H451Z" />
<glyph unicode="&#xda;" glyph-name="uni00DA" horiz-adv-x="755" d="M334 -10Q242 -10 184 36T125 185Q125 202 127 219T132 256L196 618L125 645L128 660H350L346 645L265 618L204 271Q200 251 198 232T196 195Q196 108 241 71T359 34Q400 34 440 55T512 121T556
236L624 618L537 645L540 660H752L749 645L672 618L608 256Q591 160 552 102T458 17T334 -10ZM452 710L560 862H622Q619 847 612 834T585 806L462 710H452Z" />
<glyph unicode="&#xdb;" glyph-name="uni00DB" horiz-adv-x="755" d="M334 -10Q242 -10 184 36T125 185Q125 202 127 219T132 256L196 618L125 645L128 660H350L346 645L265 618L204 271Q200 251 198 232T196 195Q196 108 241 71T359 34Q400 34 440 55T512 121T556
236L624 618L537 645L540 660H752L749 645L672 618L608 256Q591 160 552 102T458 17T334 -10ZM317 710L471 862H493L584 710H574L472 801L327 710H317Z" />
<glyph unicode="&#xdc;" glyph-name="uni00DC" horiz-adv-x="755" d="M334 -10Q242 -10 184 36T125 185Q125 202 127 219T132 256L196 618L125 645L128 660H350L346 645L265 618L204 271Q200 251 198 232T196 195Q196 108 241 71T359 34Q400 34 440 55T512 121T556
236L624 618L537 645L540 660H752L749 645L672 618L608 256Q591 160 552 102T458 17T334 -10ZM381 745Q364 745 353 757T341 786Q341 803 352 815T381 827Q398 827 410 815T422 786Q422 769 410 757T381 745ZM559 745Q542 745 530 757T518 786Q518 803 530 815T559
827Q576 827 587 815T599 786Q599 769 588 757T559 745Z" />
<glyph unicode="&#xdd;" glyph-name="uni00DD" horiz-adv-x="672" d="M170 0L173 15L262 45L310 310L158 618L92 645L96 660H315L311 645L232 622V618L363 347L576 617V621L503 645L507 660H699L696 645L633 622L378 310L330 45L411 15L408 0H170ZM410 710L518
862H580Q577 847 570 834T543 806L420 710H410Z" />
<glyph unicode="&#xde;" glyph-name="uni00DE" horiz-adv-x="576" d="M340 660L337 645L261 618L245 529H296Q400 529 462 490T525 368Q525 314 493 267T403 191T263 162H180L159 43L230 15L228 0H10L12 15L90 43L191 618L122 645L125 660H340ZM294 490H238L187
201H269Q362 201 407 246T452 363Q452 428 409 459T294 490Z" />
<glyph unicode="&#xdf;" glyph-name="uni00DF.sc" horiz-adv-x="823" d="M147 -10Q98 -10 66 0T0 29L16 160H33L57 62Q74 46 100 35T158 24Q221 24 253 56T285 142Q285 174 271 195T232 234T173 273Q124 303 101 332T78 407Q78 451 101 488T164 548T254 571Q291
571 321 562T381 535L365 408H349L328 502Q315 516 294 526T244 537Q198 537 166 510T134 434Q134 396 153 371T224 315Q283 280 312 248T342 160Q342 112 317 74T248 13T147 -10ZM558 -10Q509 -10 477 0T411 29L427 160H444L468 62Q485 46 511 35T569 24Q632 24
664 56T696 142Q696 174 682 195T643 234T584 273Q535 303 512 332T489 407Q489 451 512 488T575 548T665 571Q702 571 732 562T792 535L776 408H760L739 502Q726 516 705 526T655 537Q609 537 577 510T545 434Q545 396 564 371T635 315Q694 280 723 248T753 160Q753
112 728 74T659 13T558 -10Z" />
<glyph unicode="&#xe0;" glyph-name="uni00E0.sc" horiz-adv-x="601" d="M-15 0L-12 15L35 36L336 565H367L473 37L521 15L518 0H331L334 15L408 37L374 209H177L81 35L149 15L146 0H-15ZM197 245H367L322 472L197 245ZM356 635L234 758Q220 771 218 785T220 812H273L366
635H356Z" />
<glyph unicode="&#xe1;" glyph-name="uni00E1.sc" horiz-adv-x="601" d="M-15 0L-12 15L35 36L336 565H367L473 37L521 15L518 0H331L334 15L408 37L374 209H177L81 35L149 15L146 0H-15ZM197 245H367L322 472L197 245ZM358 635L466 812H528Q525 797 517 785T491
756L368 635H358Z" />
<glyph unicode="&#xe2;" glyph-name="uni00E2.sc" horiz-adv-x="601" d="M-15 0L-12 15L35 36L336 565H367L473 37L521 15L518 0H331L334 15L408 37L374 209H177L81 35L149 15L146 0H-15ZM197 245H367L322 472L197 245ZM228 635L382 812H404L495 635H485L382 747L238
635H228Z" />
<glyph unicode="&#xe3;" glyph-name="uni00E3.sc" horiz-adv-x="601" d="M-15 0L-12 15L35 36L336 565H367L473 37L521 15L518 0H331L334 15L408 37L374 209H177L81 35L149 15L146 0H-15ZM197 245H367L322 472L197 245ZM229 661Q252 713 268 740T299 776T331 785Q349
785 362 773T388 745T412 716T440 704Q458 704 473 721T513 785H526Q503 733 487 706T456 670T424 661Q406 661 393 673T367 701T343 730T315 742Q297 742 282 725T242 661H229Z" />
<glyph unicode="&#xe4;" glyph-name="uni00E4.sc" horiz-adv-x="601" d="M-15 0L-12 15L35 36L336 565H367L473 37L521 15L518 0H331L334 15L408 37L374 209H177L81 35L149 15L146 0H-15ZM197 245H367L322 472L197 245ZM294 682Q277 682 265 693T253 722Q253 739
265 751T294 763Q311 763 322 751T334 722Q334 705 323 694T294 682ZM460 682Q443 682 432 693T420 722Q420 739 431 751T460 763Q477 763 489 751T501 722Q501 705 489 694T460 682Z" />
<glyph unicode="&#xe5;" glyph-name="uni00E5.sc" horiz-adv-x="601" d="M-15 0L-12 15L35 36L336 565H367L473 37L521 15L518 0H331L334 15L408 37L374 209H177L81 35L149 15L146 0H-15ZM197 245H367L322 472L197 245ZM364 643Q330 643 314 661T298 709Q298 747
324 775T391 804Q423 804 440 786T457 738Q457 701 432 672T364 643ZM369 662Q393 662 406 684T420 737Q420 758 413 772T386 786Q363 786 349 765T334 710Q334 688 341 675T369 662Z" />
<glyph unicode="&#xe6;" glyph-name="uni00E6.sc" horiz-adv-x="807" d="M-15 0L-12 15L37 36L454 560H779L753 418H737L719 523H519L480 309H622L666 379H682L648 200H632L616 272H473L430 37H662L721 151H737L710 0H296L299 15L368 43L398 209H224L88 35L151
15L148 0H-15ZM252 245H405L451 501L252 245Z" />
<glyph unicode="&#xe7;" glyph-name="uni00E7.sc" horiz-adv-x="600" d="M298 -10H297L264 -63Q311 -76 334 -97T357 -154Q357 -192 328 -216T253 -240Q232 -240 212 -234T182 -215L184 -205H187Q214 -220 247 -220Q278 -220 296 -206T315 -166Q315 -138 294 -123T220
-95L274 -9Q174 -2 117 60T60 225Q60 295 84 357T152 468T257 543T393 571Q447 571 480 560T549 529L529 394H513L489 495Q446 534 378 534Q296 534 240 494T155 386T126 239Q126 136 175 79T311 22Q348 22 376 31T427 55L491 160H506L476 33Q442 14 401 2T298
-10Z" />
<glyph unicode="&#xe8;" glyph-name="uni00E8.sc" horiz-adv-x="521" d="M10 0L13 15L82 43L168 517L109 545L112 560H493L467 418H451L433 523H233L194 309H336L380 379H396L362 200H346L330 272H187L144 37H376L435 151H451L424 0H10ZM334 635L212 758Q198 771
196 785T198 812H251L344 635H334Z" />
<glyph unicode="&#xe9;" glyph-name="uni00E9.sc" horiz-adv-x="521" d="M10 0L13 15L82 43L168 517L109 545L112 560H493L467 418H451L433 523H233L194 309H336L380 379H396L362 200H346L330 272H187L144 37H376L435 151H451L424 0H10ZM336 635L444 812H506Q503
797 495 785T469 756L346 635H336Z" />
<glyph unicode="&#xea;" glyph-name="uni00EA.sc" horiz-adv-x="521" d="M10 0L13 15L82 43L168 517L109 545L112 560H493L467 418H451L433 523H233L194 309H336L380 379H396L362 200H346L330 272H187L144 37H376L435 151H451L424 0H10ZM206 635L360 812H382L473
635H463L360 747L216 635H206Z" />
<glyph unicode="&#xeb;" glyph-name="uni00EB.sc" horiz-adv-x="521" d="M10 0L13 15L82 43L168 517L109 545L112 560H493L467 418H451L433 523H233L194 309H336L380 379H396L362 200H346L330 272H187L144 37H376L435 151H451L424 0H10ZM271 682Q254 682 242 693T230
722Q230 739 242 751T271 763Q288 763 299 751T311 722Q311 705 300 694T271 682ZM437 682Q420 682 409 693T397 722Q397 739 408 751T437 763Q454 763 466 751T478 722Q478 705 466 694T437 682Z" />
<glyph unicode="&#xec;" glyph-name="uni00EC.sc" horiz-adv-x="302" d="M10 0L13 15L76 43L161 517L102 545L105 560H292L289 545L224 517L140 43L200 15L197 0H10ZM206 635L84 758Q70 771 68 785T70 812H123L216 635H206Z" />
<glyph unicode="&#xed;" glyph-name="uni00ED.sc" horiz-adv-x="302" d="M10 0L13 15L76 43L161 517L102 545L105 560H292L289 545L224 517L140 43L200 15L197 0H10ZM208 635L316 812H378Q375 797 367 785T341 756L218 635H208Z" />
<glyph unicode="&#xee;" glyph-name="uni00EE.sc" horiz-adv-x="302" d="M10 0L13 15L76 43L161 517L102 545L105 560H292L289 545L224 517L140 43L200 15L197 0H10ZM78 635L232 812H254L345 635H335L232 747L88 635H78Z" />
<glyph unicode="&#xef;" glyph-name="uni00EF.sc" horiz-adv-x="302" d="M10 0L13 15L76 43L161 517L102 545L105 560H292L289 545L224 517L140 43L200 15L197 0H10ZM144 682Q127 682 115 693T103 722Q103 739 115 751T144 763Q161 763 172 751T184 722Q184 705
173 694T144 682ZM310 682Q293 682 282 693T270 722Q270 739 281 751T310 763Q327 763 339 751T351 722Q351 705 339 694T310 682Z" />
<glyph unicode="&#xf0;" glyph-name="uni00F0.sc" horiz-adv-x="626" d="M10 0L13 15L81 43L124 276H60L66 306H129L168 517L109 545L112 560H303Q443 560 511 496T579 330Q579 237 538 163T419 44T230 0H10ZM342 276H188L144 37H228Q376 37 444 114T513 321Q513
416 458 469T286 523H233L193 306H348L342 276Z" />
<glyph unicode="&#xf1;" glyph-name="uni00F1.sc" horiz-adv-x="650" d="M10 0L13 15L81 43L168 517L103 545L106 560H227L461 117L532 518L457 545L460 560H642L639 545L573 518L480 -4H455L200 473L123 44L195 15L192 0H10ZM263 661Q286 713 302 740T333 776T365
785Q383 785 396 773T422 745T446 716T474 704Q492 704 507 721T547 785H560Q537 733 521 706T490 670T458 661Q440 661 427 673T401 701T377 730T349 742Q331 742 316 725T276 661H263Z" />
<glyph unicode="&#xf2;" glyph-name="uni00F2.sc" horiz-adv-x="653" d="M279 -10Q213 -10 164 20T87 103T60 226Q60 297 84 359T150 469T250 544T374 571Q440 571 489 541T565 459T593 336Q593 268 571 206T506 95T407 18T279 -10ZM297 25Q364 25 416 65T497
173T527 326Q527 420 484 478T357 537Q290 537 238 497T156 390T126 237Q126 143 170 84T297 25ZM378 635L256 758Q242 771 240 785T242 812H295L388 635H378Z" />
<glyph unicode="&#xf3;" glyph-name="uni00F3.sc" horiz-adv-x="653" d="M279 -10Q213 -10 164 20T87 103T60 226Q60 297 84 359T150 469T250 544T374 571Q440 571 489 541T565 459T593 336Q593 268 571 206T506 95T407 18T279 -10ZM297 25Q364 25 416 65T497
173T527 326Q527 420 484 478T357 537Q290 537 238 497T156 390T126 237Q126 143 170 84T297 25ZM380 635L488 812H550Q547 797 539 785T513 756L390 635H380Z" />
<glyph unicode="&#xf4;" glyph-name="uni00F4.sc" horiz-adv-x="653" d="M279 -10Q213 -10 164 20T87 103T60 226Q60 297 84 359T150 469T250 544T374 571Q440 571 489 541T565 459T593 336Q593 268 571 206T506 95T407 18T279 -10ZM297 25Q364 25 416 65T497
173T527 326Q527 420 484 478T357 537Q290 537 238 497T156 390T126 237Q126 143 170 84T297 25ZM250 635L404 812H426L517 635H507L404 747L260 635H250Z" />
<glyph unicode="&#xf5;" glyph-name="uni00F5.sc" horiz-adv-x="653" d="M279 -10Q213 -10 164 20T87 103T60 226Q60 297 84 359T150 469T250 544T374 571Q440 571 489 541T565 459T593 336Q593 268 571 206T506 95T407 18T279 -10ZM297 25Q364 25 416 65T497
173T527 326Q527 420 484 478T357 537Q290 537 238 497T156 390T126 237Q126 143 170 84T297 25ZM251 661Q274 713 290 740T321 776T353 785Q371 785 384 773T410 745T434 716T462 704Q480 704 495 721T535 785H548Q525 733 509 706T478 670T446 661Q428 661 415
673T389 701T365 730T337 742Q319 742 304 725T264 661H251Z" />
<glyph unicode="&#xf6;" glyph-name="uni00F6.sc" horiz-adv-x="653" d="M279 -10Q213 -10 164 20T87 103T60 226Q60 297 84 359T150 469T250 544T374 571Q440 571 489 541T565 459T593 336Q593 268 571 206T506 95T407 18T279 -10ZM297 25Q364 25 416 65T497
173T527 326Q527 420 484 478T357 537Q290 537 238 497T156 390T126 237Q126 143 170 84T297 25ZM316 682Q299 682 287 693T275 722Q275 739 287 751T316 763Q333 763 344 751T356 722Q356 705 345 694T316 682ZM482 682Q465 682 454 693T442 722Q442 739 453 751T482
763Q499 763 511 751T523 722Q523 705 511 694T482 682Z" />
<glyph unicode="&#xf7;" glyph-name="uni00F7" horiz-adv-x="500" d="M255 482H304L295 432H246L255 482ZM444 254H35L42 290H450L444 254ZM190 112H239L230 62H181L190 112Z" />
<glyph unicode="&#xf8;" glyph-name="uni00F8.sc" horiz-adv-x="653" d="M13 -10L101 79Q60 140 60 226Q60 297 84 359T150 469T250 544T374 571Q422 571 461 555T529 510L594 576H641L550 484Q593 423 593 336Q593 268 571 206T506 95T407 18T279 -10Q231 -10
191 6T123 53L60 -10H13ZM126 237Q126 173 147 125L489 470Q468 502 435 519T357 537Q290 537 238 497T156 390T126 237ZM297 25Q364 25 416 65T497 173T527 326Q527 391 506 440L163 94Q185 61 218 43T297 25Z" />
<glyph unicode="&#xf9;" glyph-name="uni00F9.sc" horiz-adv-x="678" d="M310 -9Q230 -9 179 31T127 158Q127 186 133 217L187 518L125 545L128 560H325L322 545L251 518L199 230Q193 194 193 166Q193 93 229 62T324 31Q397 31 443 75T504 200L561 517L486 545L489
560H675L672 545L604 517L550 217Q528 98 466 45T310 -9ZM415 635L293 758Q279 771 277 785T279 812H332L425 635H415Z" />
<glyph unicode="&#xfa;" glyph-name="uni00FA.sc" horiz-adv-x="678" d="M310 -9Q230 -9 179 31T127 158Q127 186 133 217L187 518L125 545L128 560H325L322 545L251 518L199 230Q193 194 193 166Q193 93 229 62T324 31Q397 31 443 75T504 200L561 517L486 545L489
560H675L672 545L604 517L550 217Q528 98 466 45T310 -9ZM417 635L525 812H587Q584 797 576 785T550 756L427 635H417Z" />
<glyph unicode="&#xfb;" glyph-name="uni00FB.sc" horiz-adv-x="678" d="M310 -9Q230 -9 179 31T127 158Q127 186 133 217L187 518L125 545L128 560H325L322 545L251 518L199 230Q193 194 193 166Q193 93 229 62T324 31Q397 31 443 75T504 200L561 517L486 545L489
560H675L672 545L604 517L550 217Q528 98 466 45T310 -9ZM287 635L441 812H463L554 635H544L441 747L297 635H287Z" />
<glyph unicode="&#xfc;" glyph-name="uni00FC.sc" horiz-adv-x="678" d="M310 -9Q230 -9 179 31T127 158Q127 186 133 217L187 518L125 545L128 560H325L322 545L251 518L199 230Q193 194 193 166Q193 93 229 62T324 31Q397 31 443 75T504 200L561 517L486 545L489
560H675L672 545L604 517L550 217Q528 98 466 45T310 -9ZM353 682Q336 682 324 693T312 722Q312 739 324 751T353 763Q370 763 381 751T393 722Q393 705 382 694T353 682ZM519 682Q502 682 491 693T479 722Q479 739 490 751T519 763Q536 763 548 751T560 722Q560
705 548 694T519 682Z" />
<glyph unicode="&#xfd;" glyph-name="uni00FD.sc" horiz-adv-x="596" d="M160 0L163 15L241 43L281 263L150 521L92 545L95 560H290L287 545L219 525V522L331 298L510 520V523L448 545L451 560H623L620 545L563 523L344 263L305 43L374 15L371 0H160ZM374 635L482
812H544Q541 797 533 785T507 756L384 635H374Z" />
<glyph unicode="&#xfe;" glyph-name="uni00FE.sc" horiz-adv-x="509" d="M13 0L16 15L79 43L165 517L106 545L109 560H297L294 545L228 517L216 451H257Q348 451 402 418T457 315Q457 264 430 224T352 160T232 136H160L143 43L203 15L200 0H13ZM254 414H210L166
173H231Q312 173 351 210T390 309Q390 362 353 388T254 414Z" />
<glyph unicode="&#xff;" glyph-name="uni00FF.sc" horiz-adv-x="596" d="M160 0L163 15L241 43L281 263L150 521L92 545L95 560H290L287 545L219 525V522L331 298L510 520V523L448 545L451 560H623L620 545L563 523L344 263L305 43L374 15L371 0H160ZM309 682Q292
682 280 693T268 722Q268 739 280 751T309 763Q326 763 337 751T349 722Q349 705 338 694T309 682ZM475 682Q458 682 447 693T435 722Q435 739 446 751T475 763Q492 763 504 751T516 722Q516 705 504 694T475 682Z" />
<glyph unicode="&#x2013;" glyph-name="uni2013" horiz-adv-x="500" d="M50 257L56 287H450L444 257H50Z" />
<glyph unicode="&#x2014;" glyph-name="uni2014" horiz-adv-x="1000" d="M50 257L56 287H950L944 257H50Z" />
<glyph unicode="&#x2018;" glyph-name="uni2018.sc" horiz-adv-x="230" d="M416 663Q411 663 407 664T395 669Q373 686 361 704T349 754Q349 780 366 811T417 869T501 906V888Q452 875 425 848T398 785Q398 770 405 757T430 733L457 715V705L444 683Q437 671 430
667T416 663Z" />
<glyph unicode="&#x2019;" glyph-name="uni2019.sc" horiz-adv-x="230" d="M325 663V681Q374 694 401 721T428 784Q428 799 421 812T397 836L370 854V864L382 886Q389 898 396 902T410 906Q415 906 420 905T432 900Q455 884 466 865T477 815Q477 788 460 757T409
700T325 663Z" />
<glyph unicode="&#x201a;" glyph-name="uni201A" horiz-adv-x="230" d="M-10 -196V-178Q39 -165 66 -138T93 -75Q93 -60 86 -47T62 -23L35 -5V5L47 27Q54 39 61 43T75 47Q80 47 85 46T97 41Q120 25 131 6T142 -44Q142 -71 125 -102T74 -159T-10 -196Z" />
<glyph unicode="&#x201c;" glyph-name="uni201C.sc" horiz-adv-x="405" d="M416 663Q411 663 407 664T395 669Q373 686 361 704T349 754Q349 780 366 811T417 869T501 906V888Q452 875 425 848T398 785Q398 770 405 757T430 733L457 715V705L444 683Q437 671 430
667T416 663ZM591 663Q586 663 582 664T570 669Q548 686 536 704T524 754Q524 780 541 811T592 869T676 906V888Q627 875 600 848T573 785Q573 770 580 757T605 733L632 715V705L619 683Q612 671 605 667T591 663Z" />
<glyph unicode="&#x201d;" glyph-name="uni201D.sc" horiz-adv-x="405" d="M325 663V681Q374 694 401 721T428 784Q428 799 421 812T397 836L370 854V864L382 886Q389 898 396 902T410 906Q415 906 420 905T432 900Q455 884 466 865T477 815Q477 788 460 757T409
700T325 663ZM500 663V681Q549 694 576 721T603 784Q603 799 596 812T572 836L545 854V864L557 886Q564 898 571 902T585 906Q590 906 595 905T607 900Q630 884 641 865T652 815Q652 788 635 757T584 700T500 663Z" />
<glyph unicode="&#x201e;" glyph-name="uni201E" horiz-adv-x="405" d="M-17 -196V-178Q32 -165 59 -138T86 -75Q86 -60 79 -47T55 -23L28 -5V5L40 27Q47 39 54 43T68 47Q73 47 78 46T90 41Q113 25 124 6T135 -44Q135 -71 118 -102T67 -159T-17 -196ZM158 -196V-178Q207
-165 234 -138T261 -75Q261 -60 254 -47T230 -23L203 -5V5L215 27Q222 39 229 43T243 47Q248 47 253 46T265 41Q288 25 299 6T310 -44Q310 -71 293 -102T242 -159T158 -196Z" />
<glyph unicode="&#x2022;" glyph-name="uni2022" horiz-adv-x="500" d="M250 169Q205 169 176 198T147 272Q147 317 176 346T250 375Q294 375 323 346T353 272Q353 227 324 198T250 169Z" />
<glyph unicode="&#x2039;" glyph-name="uni2039" horiz-adv-x="236" d="M17 247L206 424H219L86 248L167 70H154L17 247Z" />
<glyph unicode="&#x203a;" glyph-name="uni203A" horiz-adv-x="236" d="M219 247L30 70H17L150 246L69 424H83L219 247Z" />
</font>
</defs>
</svg>
